<?xml version="1.0" encoding="utf-8"?>
<!-- Generator: Adobe Illustrator 16.0.0, SVG Export Plug-In . SVG Version: 6.00 Build 0)  -->
<!DOCTYPE svg PUBLIC "-//W3C//DTD SVG 1.1//EN" "http://www.w3.org/Graphics/SVG/1.1/DTD/svg11.dtd">
<svg version="1.1" id="Layer_1" xmlns="http://www.w3.org/2000/svg" xmlns:xlink="http://www.w3.org/1999/xlink" x="0px" y="0px"
	 width="265.236px" height="42.675px" viewBox="0 0 265.236 42.675" enable-background="new 0 0 265.236 42.675"
	 xml:space="preserve">
<rect x="0.97" y="0.97" fill-rule="evenodd" clip-rule="evenodd" fill="#800011" stroke="#4D272A" stroke-width="1.9398" width="44.13" height="40.735"/>
<polygon fill-rule="evenodd" clip-rule="evenodd" fill="#FF0000" stroke="#4D272A" stroke-width="0.9699" points="6.53,8.073 
	30.174,8.073 41.996,21.271 30.174,35.704 6.53,35.704 17.115,21.271 "/>
<polyline fill-rule="evenodd" clip-rule="evenodd" fill="#FFFFFF" stroke="#4D272A" stroke-width="0.9699" points="41.996,21.271 
	30.174,8.073 6.53,8.073 17.115,21.271 "/>
<g>
	<path fill="#800011" d="M74.988,15.624c-1.216-1.435-2.98-2.249-5.254-2.249c-4.626,0-8.037,3.723-8.037,8.841
		s3.411,8.841,7.84,8.841c2.47,0,4.47-1.086,5.724-2.947l5.097,3.762c-2.313,3.257-6.233,4.77-10.036,4.77
		c-8.664,0-14.976-5.623-14.976-14.425c0-8.803,6.312-14.425,14.976-14.425c3.098,0,7.018,1.047,9.369,4.032L74.988,15.624z"/>
	<path fill="#800011" d="M83.611,8.489h6.116v27.453h-6.116V8.489z"/>
	<path fill="#800011" d="M95.293,8.489h9.251l6.391,17.914h0.078l6.43-17.914h9.213v27.453h-6.116V14.887h-0.078l-7.292,21.056
		h-4.665l-7.017-21.056h-0.079v21.056h-6.115V8.489z"/>
	<path fill="#800011" d="M132.3,8.489h10.349c4.861,0,10.154,1.008,10.154,6.979c0,3.063-1.921,5.157-4.783,6.049v0.077
		c3.646,0.466,6.076,3.142,6.076,6.709c0,5.738-5.488,7.639-10.428,7.639H132.3V8.489z M138.416,19.463h4.43
		c1.882,0,3.842-0.776,3.842-2.986c0-2.287-2.195-2.869-4.116-2.869h-4.155V19.463z M138.416,30.824h5.488
		c1.921,0,4.077-0.814,4.077-3.219c0-2.598-2.94-3.024-4.939-3.024h-4.626V30.824z"/>
</g>
<g>
	<path fill="#800011" d="M162.565,8.489h7.997c4.234,0,8.938,1.047,8.938,7.251c0,2.792-1.686,5.041-4.979,5.7v0.077
		c3.646,0.271,6.194,2.908,6.194,6.747c0,6.32-5.528,7.678-9.291,7.678h-8.86V8.489z M165.152,20.354h5.371
		c5.371,0,6.391-2.908,6.391-4.614c0-3.839-2.744-4.925-6.037-4.925h-5.725V20.354z M165.152,33.615h5.92
		c6.077,0,7.057-3.334,7.057-5.273c0-4.071-3.371-5.661-6.664-5.661h-6.312V33.615z"/>
	<path fill="#800011" d="M195.769,8.489h2.666l11.682,27.453h-2.9l-3.019-7.29h-14.701l-3.136,7.29h-2.705L195.769,8.489z
		 M196.984,11.281l-6.468,15.045h12.74L196.984,11.281z"/>
	<path fill="#800011" d="M214.116,8.489h3.332l16.896,24.041h0.078V8.489h2.588v27.453h-3.333l-16.896-24.041h-0.079v24.041h-2.587
		V8.489z"/>
	<path fill="#800011" d="M244.615,8.489h2.588v12.098h0.235l13.446-12.098h3.567l-14.034,12.563l14.818,14.89h-3.725L247.438,21.75
		h-0.235v14.192h-2.588V8.489z"/>
</g>
</svg>
